<svg width="15" height="15" viewBox="0 0 15 15" fill="none" xmlns="http://www.w3.org/2000/svg">
<path d="M14 7.33329H12.3466C12.0553 7.33267 11.7717 7.4275 11.5394 7.60327C11.307 7.77905 11.1386 8.02609 11.06 8.30663L9.49329 13.88C9.4832 13.9146 9.46214 13.945 9.43329 13.9666C9.40444 13.9883 9.36935 14 9.33329 14C9.29723 14 9.26214 13.9883 9.23329 13.9666C9.20444 13.945 9.18339 13.9146 9.17329 13.88L5.49329 0.786626C5.4832 0.752007 5.46214 0.721596 5.43329 0.699959C5.40444 0.678322 5.36935 0.666626 5.33329 0.666626C5.29723 0.666626 5.26214 0.678322 5.23329 0.699959C5.20444 0.721596 5.18339 0.752007 5.17329 0.786626L3.60663 6.35996C3.52827 6.6394 3.36088 6.88564 3.12987 7.0613C2.89886 7.23697 2.61684 7.33246 2.32663 7.33329H0.666626" stroke="#1A1A1A" stroke-width="1.33333" stroke-linecap="round" stroke-linejoin="round"/>
</svg>
