<svg width="24" height="24" viewBox="0 0 24 24" fill="none" xmlns="http://www.w3.org/2000/svg">
<path d="M10.6441 4.33149C13.1361 4.03452 15.6574 4.56139 17.8219 5.83149C19.851 7.0223 21.4626 8.8049 22.4439 10.935L22.6314 11.3657L22.6412 11.3901C22.787 11.7829 22.787 12.215 22.6412 12.6079C22.6381 12.6162 22.6348 12.625 22.6314 12.6333C22.2383 13.5863 21.7184 14.4818 21.0865 15.2963C20.8326 15.6236 20.361 15.6831 20.0338 15.4292C19.707 15.1752 19.6475 14.7045 19.901 14.3774C20.4466 13.6741 20.8959 12.9007 21.2369 12.0786C21.2543 12.0268 21.2543 11.9711 21.2369 11.9194C20.4042 9.90959 18.9387 8.22562 17.0621 7.12446C15.1802 6.02026 12.9885 5.56258 10.8219 5.82075C10.4106 5.86977 10.0369 5.57581 9.98788 5.1645C9.93901 4.75334 10.233 4.38057 10.6441 4.33149Z" fill="#525252"/>
<path d="M9.30259 9.39446C9.59038 9.09678 10.0653 9.08921 10.3631 9.37688C10.6608 9.66467 10.6694 10.1396 10.3817 10.4374C9.97195 10.8617 9.74478 11.4296 9.74986 12.0195C9.75498 12.6094 9.99192 13.1736 10.409 13.5907C10.8262 14.0079 11.3904 14.2448 11.9803 14.2499C12.5703 14.255 13.139 14.0279 13.5633 13.6181C13.8613 13.3307 14.3362 13.3388 14.6239 13.6366C14.9115 13.9345 14.903 14.4094 14.6053 14.6972C13.8982 15.3802 12.9507 15.7584 11.9676 15.7499C10.9844 15.7414 10.0438 15.3466 9.34849 14.6513C8.65337 13.9561 8.25852 13.0162 8.24986 12.0331C8.24131 11.0499 8.6195 10.1017 9.30259 9.39446Z" fill="#525252"/>
<path d="M6.12449 5.86441C6.48056 5.65279 6.94118 5.77006 7.15281 6.12613C7.36418 6.48215 7.24704 6.94191 6.89109 7.15347C5.03733 8.25521 3.58932 9.92663 2.76316 11.9181C2.74521 11.97 2.745 12.0262 2.76218 12.0783C3.30896 13.3977 4.13218 14.585 5.17625 15.5597C6.22455 16.5383 7.47133 17.2801 8.83152 17.7345C10.1918 18.189 11.634 18.3455 13.06 18.1935C14.4861 18.0415 15.8632 17.5846 17.0971 16.8537C17.4534 16.6428 17.9134 16.7602 18.1245 17.1164C18.3356 17.4727 18.2172 17.9336 17.8608 18.1447C16.442 18.985 14.8589 19.5099 13.2192 19.6847C11.5792 19.8595 9.92026 19.68 8.35593 19.1574C6.79159 18.6347 5.35842 17.781 4.15281 16.6554C2.94723 15.5299 1.99738 14.1587 1.36863 12.6339C1.36523 12.6257 1.36197 12.6169 1.35886 12.6086C1.21314 12.2157 1.21306 11.7836 1.35886 11.3908L1.36863 11.3664C2.31707 9.06633 3.98583 7.13556 6.12449 5.86441Z" fill="#525252"/>
<path d="M1.46972 1.46967C1.76261 1.17678 2.23737 1.17678 2.53027 1.46967L22.5303 21.4697C22.8232 21.7626 22.8232 22.2373 22.5303 22.5302C22.2374 22.8231 21.7626 22.8231 21.4697 22.5302L1.46972 2.53022C1.17683 2.23732 1.17683 1.76256 1.46972 1.46967Z" fill="#525252"/>
</svg>
