<svg width="20" height="20" viewBox="0 0 20 20" fill="none" xmlns="http://www.w3.org/2000/svg">
<path d="M17.75 12.75C17.9365 12.9358 18.0844 13.1566 18.1854 13.3997C18.2863 13.6428 18.3383 13.9034 18.3383 14.1667C18.3383 14.4299 18.2863 14.6905 18.1854 14.9336C18.0844 15.1767 17.9365 15.3975 17.75 15.5833L15.5834 17.75C15.3975 17.9364 15.1768 18.0844 14.9337 18.1853C14.6906 18.2863 14.4299 18.3382 14.1667 18.3382C13.9035 18.3382 13.6428 18.2863 13.3997 18.1853C13.1566 18.0844 12.9358 17.9364 12.75 17.75L2.25002 7.24999C1.87548 6.87363 1.66522 6.36428 1.66522 5.83332C1.66522 5.30236 1.87548 4.79301 2.25002 4.41665L4.41668 2.24999C4.79304 1.87545 5.30239 1.66519 5.83335 1.66519C6.36431 1.66519 6.87367 1.87545 7.25002 2.24999L17.75 12.75Z" stroke="#737373" stroke-width="1.66667" stroke-linecap="round" stroke-linejoin="round"/>
<path d="M12.0833 10.4167L13.75 8.75" stroke="#737373" stroke-width="1.66667" stroke-linecap="round" stroke-linejoin="round"/>
<path d="M9.58331 7.91667L11.25 6.25" stroke="#737373" stroke-width="1.66667" stroke-linecap="round" stroke-linejoin="round"/>
<path d="M7.08331 5.41667L8.74998 3.75" stroke="#737373" stroke-width="1.66667" stroke-linecap="round" stroke-linejoin="round"/>
<path d="M14.5833 12.9167L16.25 11.25" stroke="#737373" stroke-width="1.66667" stroke-linecap="round" stroke-linejoin="round"/>
</svg>
