<svg width="19" height="19" viewBox="0 0 19 19" fill="none" xmlns="http://www.w3.org/2000/svg">
<path d="M17 5.75V1.5H12.75C12.3358 1.5 12 1.16421 12 0.75C12 0.335786 12.3358 0 12.75 0H17.75C18.1642 0 18.5 0.335786 18.5 0.75V5.75C18.5 6.16421 18.1642 6.5 17.75 6.5C17.3358 6.5 17 6.16421 17 5.75Z" fill="#525252"/>
<path d="M17.2197 0.219727C17.5126 -0.0731665 17.9874 -0.0731665 18.2803 0.219727C18.5732 0.51262 18.5732 0.98738 18.2803 1.28027L11.5303 8.03027C11.2374 8.32317 10.7626 8.32317 10.4697 8.03027C10.1768 7.73738 10.1768 7.26262 10.4697 6.96973L17.2197 0.219727Z" fill="#525252"/>
<path d="M12 11.75C12 8.8505 9.6495 6.5 6.75 6.5C3.85051 6.5 1.5 8.8505 1.5 11.75C1.5 14.6495 3.85051 17 6.75 17C9.6495 17 12 14.6495 12 11.75ZM13.5 11.75C13.5 15.4779 10.4779 18.5 6.75 18.5C3.02208 18.5 0 15.4779 0 11.75C0 8.02208 3.02208 5 6.75 5C10.4779 5 13.5 8.02208 13.5 11.75Z" fill="#525252"/>
</svg>
