<svg width="40" height="40" viewBox="0 0 40 40" fill="none" xmlns="http://www.w3.org/2000/svg">
<path d="M14.1666 24.1667C15.2717 24.1667 16.3315 23.7277 17.1129 22.9463C17.8943 22.1649 18.3333 21.1051 18.3333 20C18.3333 17.7 17.5 16.6667 16.6666 15C14.88 11.4283 16.2933 8.24333 20 5C20.8333 9.16667 23.3333 13.1667 26.6666 15.8333C30 18.5 31.6666 21.6667 31.6666 25C31.6666 26.5321 31.3649 28.0492 30.7786 29.4646C30.1923 30.8801 29.3329 32.1662 28.2496 33.2496C27.1662 34.3329 25.8801 35.1923 24.4646 35.7786C23.0492 36.3649 21.5321 36.6667 20 36.6667C18.4679 36.6667 16.9508 36.3649 15.5353 35.7786C14.1199 35.1923 12.8338 34.3329 11.7504 33.2496C10.6671 32.1662 9.80769 30.8801 9.22138 29.4646C8.63508 28.0492 8.33331 26.5321 8.33331 25C8.33331 23.0783 9.05498 21.1767 9.99998 20C9.99998 21.1051 10.439 22.1649 11.2204 22.9463C12.0018 23.7277 13.0616 24.1667 14.1666 24.1667Z" stroke="#737373" stroke-width="3.33333" stroke-linecap="round" stroke-linejoin="round"/>
</svg>
