<svg width="14" height="22" viewBox="0 0 14 22" fill="none" xmlns="http://www.w3.org/2000/svg">
<path d="M12 6.75C12 5.35761 11.4465 4.02265 10.4619 3.03809C9.47735 2.05352 8.14239 1.5 6.75 1.5C5.35761 1.5 4.02265 2.05352 3.03809 3.03809C2.05352 4.02265 1.5 5.35761 1.5 6.75C1.5 7.60319 1.65392 8.59337 2.78027 9.71973C3.52237 10.4618 4.24274 11.39 4.48535 12.6025C4.56656 13.0086 4.30342 13.4039 3.89746 13.4854C3.49142 13.5666 3.09605 13.3034 3.01465 12.8975C2.85719 12.1102 2.37755 11.4381 1.71973 10.7803C0.246081 9.30663 0 7.89681 0 6.75C0 4.95979 0.710692 3.24243 1.97656 1.97656C3.24243 0.710692 4.95979 0 6.75 0C8.54021 0 10.2576 0.710692 11.5234 1.97656C12.7893 3.24243 13.5 4.95979 13.5 6.75C13.5 8.22307 12.9377 9.72217 11.7803 10.7803C11.0299 11.5307 10.6441 12.1038 10.4854 12.8975C10.4039 13.3034 10.0086 13.5666 9.60254 13.4854C9.19658 13.4039 8.93344 13.0086 9.01465 12.6025C9.25597 11.3964 9.87023 10.5692 10.7197 9.71973L10.748 9.69238C11.5709 8.95185 12 7.86459 12 6.75Z" fill="#525252"/>
<path d="M9.75 16C10.1642 16 10.5 16.3358 10.5 16.75C10.5 17.1642 10.1642 17.5 9.75 17.5H3.75C3.33579 17.5 3 17.1642 3 16.75C3 16.3358 3.33579 16 3.75 16H9.75Z" fill="#525252"/>
<path d="M8.75 20C9.16421 20 9.5 20.3358 9.5 20.75C9.5 21.1642 9.16421 21.5 8.75 21.5H4.75C4.33579 21.5 4 21.1642 4 20.75C4 20.3358 4.33579 20 4.75 20H8.75Z" fill="#525252"/>
</svg>
