<svg width="20" height="20" viewBox="0 0 20 20" fill="none" xmlns="http://www.w3.org/2000/svg">
<path d="M10 6.66666C11.3807 6.66666 12.5 5.54737 12.5 4.16666C12.5 2.78594 11.3807 1.66666 10 1.66666C8.61929 1.66666 7.5 2.78594 7.5 4.16666C7.5 5.54737 8.61929 6.66666 10 6.66666Z" stroke="#737373" stroke-width="1.66667" stroke-linecap="round" stroke-linejoin="round"/>
<path d="M5.41665 6.66666C5.05603 6.6704 4.70635 6.79101 4.42011 7.01039C4.13387 7.22977 3.92651 7.53607 3.82915 7.88332L1.74999 15.4167C1.68699 15.6605 1.68006 15.9154 1.72972 16.1623C1.77938 16.4092 1.88435 16.6416 2.03672 16.8421C2.1891 17.0426 2.38492 17.2059 2.60949 17.3199C2.83406 17.4338 3.08154 17.4954 3.33332 17.5H16.6667C16.9239 17.4999 17.1776 17.4403 17.4079 17.3258C17.6383 17.2113 17.839 17.045 17.9943 16.84C18.1497 16.635 18.2555 16.3968 18.3035 16.1441C18.3515 15.8914 18.3403 15.631 18.2708 15.3833L16.1667 7.91666C16.0749 7.56116 15.8683 7.24592 15.579 7.01989C15.2896 6.79386 14.9338 6.66969 14.5667 6.66666H5.41665Z" stroke="#737373" stroke-width="1.66667" stroke-linecap="round" stroke-linejoin="round"/>
</svg>
